<svg id="Layer_1" data-name="Layer 1" xmlns="http://www.w3.org/2000/svg" viewBox="0 0 211.39 249.42"><defs><style>.cls-1{fill:#201751;}.cls-2{fill:#ffcd00;}.cls-3{opacity:0.7;}.cls-4{fill:#231f20;}.cls-5{fill:#fff;}</style></defs><title>Twiga logo 2</title><g id="Layer_1-2" data-name="Layer 1"><path class="cls-1" d="M209.33,124.71c0,67.72-46.39,122.62-103.62,122.62S2.1,192.43,2.1,124.71,48.49,2.09,105.71,2.09,209.33,57,209.33,124.71" transform="translate(0 0)"/><path class="cls-1" d="M105.71,249.42C47.42,249.42,0,193.48,0,124.71S47.39,0,105.71,0,211.39,55.94,211.39,124.71,164,249.42,105.71,249.42Zm0-245.23c-56,0-101.52,54.06-101.52,120.52S49.73,245.23,105.71,245.23s101.52-54.06,101.52-120.52S161.69,4.19,105.71,4.19Z" transform="translate(0 0)"/><path class="cls-2" d="M105.72,13.38C55,13.38,13.66,63.24,13.66,124.52S55,235.65,105.72,235.65s92.05-49.83,92.05-111.13S156.47,13.38,105.72,13.38m0,229.75c-54.85,0-99.47-53.21-99.47-118.61S50.87,5.89,105.72,5.89s99.46,53.22,99.46,118.63-44.62,118.61-99.46,118.61" transform="translate(0 0)"/><path class="cls-1" d="M25.6,156.71H40a17.89,17.89,0,0,0,4.24-.63,5.49,5.49,0,0,1,1.45-.23c1.48,0,2.91,1.1,4.31,3.32A12.53,12.53,0,0,1,52.11,166a4.13,4.13,0,0,1-1.45,3.51,4.26,4.26,0,0,1-2.62.83,4,4,0,0,1-2.52-.82,8.84,8.84,0,0,1-2.13-2.69A10.48,10.48,0,0,0,42,164.58a1.72,1.72,0,0,0-1.26-.54,1.53,1.53,0,0,0-1.45.86,6.63,6.63,0,0,0-.44,2.82v15.47a8.66,8.66,0,0,0,.5,3.46,3.28,3.28,0,0,0,1.86,1.65,6.61,6.61,0,0,1,2,1.21,2.19,2.19,0,0,1,.53,1.55c0,1.34-.89,2.32-2.67,3a25.47,25.47,0,0,1-8.19,1c-4.53,0-7.88-.38-10.07-1.13Q20,193,20,190.93a2,2,0,0,1,1-1.77,14.82,14.82,0,0,1,1.94-.67,2.2,2.2,0,0,0,1.45-1.16,12.3,12.3,0,0,0,.64-3.29c.14-1.44.28-3.76.4-7s.2-6,.2-8.37a11.08,11.08,0,0,0-.39-3.53,1.31,1.31,0,0,0-1.26-1c-.71,0-1.4.5-2.07,1.54a16.28,16.28,0,0,1-3,3.72,4.52,4.52,0,0,1-2.71,1.09,3,3,0,0,1-2.44-1.13,4.18,4.18,0,0,1-1-2.85,10.85,10.85,0,0,1,.77-3.78,15.28,15.28,0,0,1,2-3.79c1.39-1.89,2.76-2.82,4.11-2.82a6,6,0,0,1,1.26.16c1,.2,1.79.34,2.41.42a19.77,19.77,0,0,0,2.18.11" transform="translate(0 0)"/><path class="cls-1" d="M47.73,163.65l.34.32a9.29,9.29,0,0,1,1.1,1.4,8.92,8.92,0,0,0-.49-.85,7.84,7.84,0,0,0-.68-1l-.27.08m-16.1,28.17c1.17.1,2.61.17,4.4.17a27.12,27.12,0,0,0,2.87-.09,8.28,8.28,0,0,1-.82-1.37,12.73,12.73,0,0,1-.9-5.28v-15a10.39,10.39,0,0,1,.94-4.85,6.32,6.32,0,0,1,.75-1.15H32a6.39,6.39,0,0,1,1,1.83,14.62,14.62,0,0,1,.66,5c0,2.31-.07,5.09-.19,8.24s-.26,5.53-.42,7A14.4,14.4,0,0,1,32,191c-.12.24-.25.48-.39.71m4.4,9.45c-4.92,0-8.58-.44-11.2-1.35-5.2-1.76-5.77-5.7-5.77-7.31a6.58,6.58,0,0,1,3.07-5.62l.24-.09a7.64,7.64,0,0,1,1.45-.6c0-.21.06-.46.09-.74.13-1.29.26-3.45.38-6.45,0-1,.07-1.94.09-2.84A8.34,8.34,0,0,1,20,177.5a7.61,7.61,0,0,1-5.83-2.68,8.78,8.78,0,0,1-2-5.79,15.31,15.31,0,0,1,1-5.27,19.7,19.7,0,0,1,2.6-4.82c2.25-3,4.82-4.57,7.64-4.57a9.42,9.42,0,0,1,2.18.26c1,.2,1.58.29,1.9.33A13.75,13.75,0,0,0,29,155H42.86a12.48,12.48,0,0,0,2.91-.43,10,10,0,0,1,2.66-.4c3.09,0,5.8,1.8,8,5.35a16.83,16.83,0,0,1,2.74,9.08,8.39,8.39,0,0,1-3.23,7.08,8.77,8.77,0,0,1-9.55.61v9.8a9.61,9.61,0,0,1,2.92,2,6.73,6.73,0,0,1,1.78,4.71c0,1.56-.55,5.38-5.62,7.22A28.5,28.5,0,0,1,36,201.26" transform="translate(0 0)"/><path class="cls-1" d="M84.89,189.64l-2.82-4.56a19.53,19.53,0,0,0-1.27-1.85,1,1,0,0,0-.75-.3c-.66,0-1.34.6-2,1.82l-4.57,8c-.87,1.52-1.86,2.29-3,2.29a2.83,2.83,0,0,1-1.86-.7A9.05,9.05,0,0,1,66.84,192l-8.25-13.83a21.44,21.44,0,0,0-3.2-4.37,6.1,6.1,0,0,0-2-.85,2,2,0,0,1-1-.76,2.19,2.19,0,0,1-.4-1.26q0-2.13,3.26-3a29.26,29.26,0,0,1,7.16-.83q8.73,0,8.74,3.29a4,4,0,0,1-.86,1.85.87.87,0,0,0-.16.52,10,10,0,0,0,1.29,3q1.41,2.73,2.46,2.73.6,0,1.53-1.38a4.45,4.45,0,0,0,1-2.24,2.1,2.1,0,0,0-.41-1.37A12,12,0,0,0,74,171.83a1.89,1.89,0,0,1-.93-1.57q0-2.16,4.37-2.82a40.72,40.72,0,0,1,6.24-.41,17.65,17.65,0,0,1,6,.71A2.37,2.37,0,0,1,91.55,170a2,2,0,0,1-.22,1,9.15,9.15,0,0,1-1.18,1.38,1.29,1.29,0,0,0-.3.86,9.74,9.74,0,0,0,1.26,3.16c.73,1.39,1.39,2.09,2,2.09s1.49-.89,2.49-2.68a7.74,7.74,0,0,0,1.09-2.68,3.33,3.33,0,0,0-.87-1.63,2.59,2.59,0,0,1-.63-1.68,2,2,0,0,1,1.29-2,13.59,13.59,0,0,1,5.25-.8,21.2,21.2,0,0,1,4.13.35,3.28,3.28,0,0,1,1.7.9,2.21,2.21,0,0,1,.65,1.56,1.86,1.86,0,0,1-.76,1.5,12.22,12.22,0,0,1-1.92.77,4.19,4.19,0,0,0-1.67,1.11,12,12,0,0,0-1.59,2.56l-6.88,13.44c-2,3.9-3.77,5.87-5.3,5.87a3.33,3.33,0,0,1-2.18-1.26,27.55,27.55,0,0,1-3-4.19" transform="translate(0 0)"/><path class="cls-1" d="M62.39,174.37a37.45,37.45,0,0,1,2.36,3.49l7.43,12.48,2.91-5.07c-3.45-.31-5.25-3.76-5.94-5.1-1.32-2.46-1.77-3.75-1.77-5.06v-.69a25.41,25.41,0,0,0-2.89-.13,18.78,18.78,0,0,0-2.14.08m19.41,5.94A5.53,5.53,0,0,1,85.54,182a16,16,0,0,1,1.77,2.48L90.06,189c.44.71.8,1.28,1.12,1.73.28-.47.62-1.06,1-1.81l1.8-3.51c-2.41,0-4.41-1.53-6-4.5-1.27-2.43-1.74-3.84-1.74-5.2a6.23,6.23,0,0,1,.15-1.36H85q-1.64,0-3,.09a7,7,0,0,1,.55,2.78,7.49,7.49,0,0,1-.76,3.15m9.39,21a7.43,7.43,0,0,1-5.42-2.64,30.29,30.29,0,0,1-3.47-4.79l-.79-1.29-2.37,4.12c-2.25,3.94-5.24,4.53-6.82,4.53a7.32,7.32,0,0,1-4.71-1.74A12.8,12.8,0,0,1,64.74,196l-7.9-13.27a26.26,26.26,0,0,0-1.93-2.84l-.39-.11-.15-.06a6.4,6.4,0,0,1-3.32-2.46,6.8,6.8,0,0,1-1.22-3.9c0-1.69.64-5.81,6.58-7.37a32.66,32.66,0,0,1,8.06-.95c4.14,0,7.29.61,9.46,1.8a13.25,13.25,0,0,1,4.35-1.34A44.21,44.21,0,0,1,85,165a21,21,0,0,1,7.38,1,8.5,8.5,0,0,1,1.77.92,7.8,7.8,0,0,1,1.32-.74,17.16,17.16,0,0,1,6.87-1.14,24.93,24.93,0,0,1,4.87.44,7.77,7.77,0,0,1,4,2.17,6.8,6.8,0,0,1,1.94,4.75,6.36,6.36,0,0,1-2.35,5,9.41,9.41,0,0,1-3.13,1.53c-.11.17-.35.57-.74,1.33l-6.52,12.86c-2,3.79-4.77,8.15-9.2,8.15" transform="translate(0 0)"/><path class="cls-1" d="M118.62,156.71a6.86,6.86,0,0,1,3.78.9,2.74,2.74,0,0,1,1.39,2.42,3.79,3.79,0,0,1-2.1,3.37,15.82,15.82,0,0,1-8.08,1.95,5.68,5.68,0,0,1-3.17-.77,3.09,3.09,0,0,1-1.59-2.76q0-2.38,3.37-3.73a17,17,0,0,1,6.4-1.38m5.41,12.1v16a8.23,8.23,0,0,0,.35,2.79,3.71,3.71,0,0,0,1.38,1.63,4.94,4.94,0,0,1,1.14,1,1.91,1.91,0,0,1,.28,1.09q0,3.57-9,3.56a30.11,30.11,0,0,1-7.63-.77,3.12,3.12,0,0,1-1.54-1,2.32,2.32,0,0,1-.59-1.57,1.91,1.91,0,0,1,.3-1.16,8.8,8.8,0,0,1,1.53-1.33,3.54,3.54,0,0,0,1.2-2.07,19.28,19.28,0,0,0,.36-4.29c0-.6,0-1.74-.12-3.41s-.14-2.63-.18-2.91a2.28,2.28,0,0,0-1.53-1.74,2.39,2.39,0,0,1-1.7-2.21c0-1.16.74-2,2.22-2.6a51.83,51.83,0,0,1,6.57-2,25.37,25.37,0,0,1,5.41-.82q1.5,0,1.5,1.71" transform="translate(0 0)"/><path class="cls-1" d="M115.71,191.82c.76.05,1.63.08,2.64.08.76,0,1.4,0,2-.06-.11-.22-.21-.45-.3-.67a12.14,12.14,0,0,1-.66-4.35v-12l-1,.23c-.91.21-1.81.45-2.68.72a6.34,6.34,0,0,1,.82,2.35c0,.35.1.86.22,3.25.08,1.69.12,2.84.12,3.52a22.12,22.12,0,0,1-.48,5.26,9.08,9.08,0,0,1-.61,1.75m2.64,9.36a32.89,32.89,0,0,1-8.56-.91,7.7,7.7,0,0,1-3.77-2.39,6.87,6.87,0,0,1-1.68-4.54,6.41,6.41,0,0,1,1.19-3.88,9.9,9.9,0,0,1,1.92-1.85,17.47,17.47,0,0,0,.16-2.8c0-.29,0-1.08-.11-3a6.92,6.92,0,0,0,0-1.09,6.76,6.76,0,0,1-3.24-5.77,6.91,6.91,0,0,1,2.38-5.25,7.62,7.62,0,0,1-1.88-5.09c0-2,.8-5.76,6.14-7.9a20.92,20.92,0,0,1,7.88-1.67,11.11,11.11,0,0,1,6.1,1.59,7.35,7.35,0,0,1,3.48,6.25,8,8,0,0,1-1.19,4.28,6.5,6.5,0,0,1,1.42,4.19v16.14a8.63,8.63,0,0,1,2,2,6.48,6.48,0,0,1,1.06,3.65c0,3.69-2.29,8.08-13.23,8.08" transform="translate(0 0)"/><path class="cls-1" d="M143,171.13a2.69,2.69,0,0,0-2.2,1.05A4.36,4.36,0,0,0,140,175a10.75,10.75,0,0,0,.9,4.78,2.71,2.71,0,0,0,2.38,1.8,2.75,2.75,0,0,0,2.3-1.12,4.86,4.86,0,0,0,.84-3,9.73,9.73,0,0,0-.89-4.6,2.85,2.85,0,0,0-2.5-1.7m-6,25.14c-.46,0-.68.27-.68.8a3,3,0,0,0,1.75,2.64,9,9,0,0,0,4.54,1,10,10,0,0,0,4.2-.72,2.23,2.23,0,0,0,1.52-2,1.48,1.48,0,0,0-.57-1.17,2.12,2.12,0,0,0-1.43-.48,8.93,8.93,0,0,0-1.26.11,21.78,21.78,0,0,1-3.42.25,26.57,26.57,0,0,1-2.68-.14,13.94,13.94,0,0,1-1.56-.22,2.7,2.7,0,0,0-.41-.06m20.82-30.86a1.49,1.49,0,0,1,1.2.79,3.18,3.18,0,0,1,.52,1.84,5.87,5.87,0,0,1-.7,2.56,7.08,7.08,0,0,1-1.68,2.3c-.41.37-.63.66-.63.88a4.29,4.29,0,0,0,.06.67,6.74,6.74,0,0,1,.08,1A7.56,7.56,0,0,1,154.5,181a13.34,13.34,0,0,1-5.07,3.1,20.12,20.12,0,0,1-6.83,1.1,15.05,15.05,0,0,1-1.78-.11,8,8,0,0,0-1.1-.08,1.27,1.27,0,0,0-1.44,1.09,1.15,1.15,0,0,0,0,.37,1.62,1.62,0,0,0,.94,1.47,5.15,5.15,0,0,0,2.56.55,29.15,29.15,0,0,0,3.23-.3,50.63,50.63,0,0,1,6.62-.64,9.65,9.65,0,0,1,5,1.08,5.93,5.93,0,0,1,2.26,2.32,6.3,6.3,0,0,1,.84,3.2,8.77,8.77,0,0,1-2,5.41,14,14,0,0,1-7.08,4.59,28,28,0,0,1-8.48,1.17,22.14,22.14,0,0,1-9.86-1.89,7.61,7.61,0,0,1-2.78-2.32,5,5,0,0,1-1-3,3.56,3.56,0,0,1,.58-2,3.38,3.38,0,0,1,1.5-1.3c.54-.22.81-.46.81-.71s-.22-.5-.68-.89a5.18,5.18,0,0,1-2.19-3.84,4.66,4.66,0,0,1,1.06-2.74,7.25,7.25,0,0,1,2.61-2.18c.44-.22.65-.44.65-.66s-.27-.65-.82-1.16a8.17,8.17,0,0,1-2.81-6.14,6.85,6.85,0,0,1,1-3.53,9,9,0,0,1,2.78-2.87,17.33,17.33,0,0,1,9.77-2.91,23.1,23.1,0,0,1,4.76.56,20.72,20.72,0,0,0,3.42.49,9.53,9.53,0,0,0,5.94-2.37,1.87,1.87,0,0,1,1-.5" transform="translate(0 0)"/><path class="cls-1" d="M149.66,175.45a16.89,16.89,0,0,1,.47,4.19v.18a2.68,2.68,0,0,0,.76-2,2,2,0,0,0,0-.35v-.22c-.06-.63-.07-1-.07-1.08a4.09,4.09,0,0,1,0-.7,10.84,10.84,0,0,1-1.14,0m-14.91,1.29a3.44,3.44,0,0,0-.9,1,1.77,1.77,0,0,0-.32,1,3.17,3.17,0,0,0,1.24,2.51l.51.5a17.29,17.29,0,0,1-.54-4.53v-.52m-1.62,14.43.21.18a6.81,6.81,0,0,1,1.7,2,3.57,3.57,0,0,1,.47-.11,6.06,6.06,0,0,1-1.92-2.5,2,2,0,0,0-.46.41m15.81,3a7.94,7.94,0,0,1,.89.63A6,6,0,0,1,152,199a6.35,6.35,0,0,0,.84-.88,3.68,3.68,0,0,0,1-2.35,1.66,1.66,0,0,0-.21-.81,1.28,1.28,0,0,0-.48-.5,4.88,4.88,0,0,0-2.53-.42,15,15,0,0,0-1.66.08m-7.49,17A25.77,25.77,0,0,1,130,208.85a11.93,11.93,0,0,1-4.37-3.67,9.47,9.47,0,0,1-1.88-5.62,8.13,8.13,0,0,1,1.17-4.22,8.49,8.49,0,0,1-1.15-4.2,9,9,0,0,1,1.94-5.43c.16-.21.33-.41.5-.61a12.18,12.18,0,0,1-1.77-6.28A11.17,11.17,0,0,1,126,173a13.28,13.28,0,0,1,4.08-4.26,21.34,21.34,0,0,1,12-3.56,27.81,27.81,0,0,1,5.53.62,19,19,0,0,0,2.38.39,4.75,4.75,0,0,0,2.84-1.29l.11-.08a6.29,6.29,0,0,1,3.73-1.4,5.93,5.93,0,0,1,5,2.82,7.82,7.82,0,0,1,1.28,4.35,10.61,10.61,0,0,1-1.14,4.52,12.39,12.39,0,0,1-1.64,2.54v.13a12,12,0,0,1-3.12,8.25c.29.14.56.29.84.45a10.44,10.44,0,0,1,3.81,3.94,11,11,0,0,1,1.39,5.38,13,13,0,0,1-2.92,8.07,18,18,0,0,1-9.07,6,31.26,31.26,0,0,1-9.56,1.34" transform="translate(0 0)"/><path class="cls-1" d="M174.79,182.88a2.73,2.73,0,0,0-2.1,1,3.8,3.8,0,0,0-.26,4.52,2,2,0,0,0,1.67.81c1.46,0,2.19-1.24,2.19-3.73a4.41,4.41,0,0,0-.31-2,1.32,1.32,0,0,0-1.19-.55m1.83-16a13.31,13.31,0,0,1,8.07,2.43,7,7,0,0,1,2.45,3,12.35,12.35,0,0,1,.7,4.59l-.05,4.12q0,4.29.59,5.56a1.83,1.83,0,0,0,.58.77,3.26,3.26,0,0,0,1.15.3,1,1,0,0,1,.89,1.1s0,0,0,.06a4.77,4.77,0,0,1-1.06,2.77,8.81,8.81,0,0,1-2.72,2.4,8.37,8.37,0,0,1-4.3,1.22,5.65,5.65,0,0,1-4.54-2c-.38-.48-.74-.73-1.06-.73a2.77,2.77,0,0,0-1.46.7,10.19,10.19,0,0,1-6.21,2,10,10,0,0,1-5.8-1.55,7.59,7.59,0,0,1-3.14-6.11,6.86,6.86,0,0,1,2.3-5.08q3.58-3.48,10.72-3.51a4,4,0,0,0,2-.31c.27-.22.41-.71.41-1.49a10.86,10.86,0,0,0-.6-4.23,2,2,0,0,0-2-1.32,2.38,2.38,0,0,0-1.47.5,9.25,9.25,0,0,0-1.6,1.82c-1.62,2.34-3.31,3.51-5.09,3.51a3,3,0,0,1-2.19-.8,2.76,2.76,0,0,1-.84-2.1,4.25,4.25,0,0,1,1-2.66,9.28,9.28,0,0,1,2.86-2.31,21.59,21.59,0,0,1,10.34-2.66" transform="translate(0 0)"/><path class="cls-1" d="M170,187.56c0,.09.09.17.14.27a3.45,3.45,0,0,0,2.64,1.7l.1-3.1a2.82,2.82,0,0,0-2.88,1.13m2.93-1.11v3.08a2,2,0,0,0,1.39-.57,1.41,1.41,0,0,0,.33-.83,1.92,1.92,0,0,0-.36-.78,2.79,2.79,0,0,0-1.36-.9m-7.42.74a6.44,6.44,0,0,0-.77.61,2,2,0,0,0-.8,1.56,2.65,2.65,0,0,0,1.06,2.09,3.42,3.42,0,0,0,1.34.51,8.22,8.22,0,0,1-.88-3.83v-.94m14.4,4.67c.11.11.26.24.86.24a3.37,3.37,0,0,0,1.8-.52,9.88,9.88,0,0,1-.64-1.08c-.76-1.61-1.06-3.74-1.06-7.43l.05-4a7.44,7.44,0,0,0-.31-2.57,2.45,2.45,0,0,0-.85-.93,6.15,6.15,0,0,0-1.44-.8,17.36,17.36,0,0,1,.5,4.6,7,7,0,0,1-.86,3.59v.09a8.21,8.21,0,0,1,1,4.37,12.21,12.21,0,0,1-.4,3.18,6.78,6.78,0,0,1,1.33,1.29m.86,9.53a10.2,10.2,0,0,1-5.87-1.73,14.33,14.33,0,0,1-6.93,1.73,14,14,0,0,1-8.21-2.32,12,12,0,0,1-5-9.71,11.13,11.13,0,0,1,3.23-7.84,7.38,7.38,0,0,1-1.62-4.71,8.63,8.63,0,0,1,2-5.46,13.6,13.6,0,0,1,4.14-3.4,25.41,25.41,0,0,1,12.26-3.16,17.26,17.26,0,0,1,10.48,3.23,11.52,11.52,0,0,1,3.89,4.82,16.14,16.14,0,0,1,1,6.23l0,4a20.86,20.86,0,0,0,.07,2.31,5.68,5.68,0,0,1,3,5.14,9,9,0,0,1-1.91,5.42,13.09,13.09,0,0,1-4,3.59,12.44,12.44,0,0,1-6.43,1.79" transform="translate(0 0)"/><g class="cls-3"><path class="cls-4" d="M29,160.35H42.92a16.57,16.57,0,0,0,4.08-.61,5.6,5.6,0,0,1,1.4-.22c1.43,0,2.81,1.07,4.16,3.2a12.14,12.14,0,0,1,2,6.58,4,4,0,0,1-1.4,3.39,4.1,4.1,0,0,1-2.53.8,3.87,3.87,0,0,1-2.43-.79,8.3,8.3,0,0,1-2-2.59A9.56,9.56,0,0,0,44.82,168a1.62,1.62,0,0,0-1.21-.51,1.46,1.46,0,0,0-1.4.82,6.36,6.36,0,0,0-.42,2.73V185.9a8.63,8.63,0,0,0,.48,3.34,3.18,3.18,0,0,0,1.79,1.59A5.92,5.92,0,0,1,46,192a2.1,2.1,0,0,1,.51,1.5c0,1.28-.85,2.23-2.57,2.85a24.8,24.8,0,0,1-7.9.93q-6.55,0-9.71-1.09c-1.78-.6-2.67-1.58-2.67-2.92a1.94,1.94,0,0,1,.95-1.71,17.16,17.16,0,0,1,1.87-.64,2.09,2.09,0,0,0,1.39-1.12,11.21,11.21,0,0,0,.62-3.18q.21-2.07.4-6.72t.18-8.07a10.83,10.83,0,0,0-.37-3.4,1.26,1.26,0,0,0-1.21-1c-.69,0-1.35.49-2,1.49a15.65,15.65,0,0,1-2.9,3.59,4.38,4.38,0,0,1-2.61,1,2.89,2.89,0,0,1-2.35-1.08,4,4,0,0,1-.93-2.75,10.34,10.34,0,0,1,.75-3.64,15,15,0,0,1,2-3.67c1.33-1.81,2.67-2.72,4-2.72a5.59,5.59,0,0,1,1.22.16c.94.2,1.72.33,2.33.41a18.45,18.45,0,0,0,2.1.1" transform="translate(0 0)"/><path class="cls-4" d="M86.19,192.11l-2.72-4.4a16.58,16.58,0,0,0-1.23-1.78,1,1,0,0,0-.72-.29c-.63,0-1.29.58-2,1.76l-4.41,7.67c-.84,1.47-1.79,2.21-2.85,2.21a2.74,2.74,0,0,1-1.79-.67,8.83,8.83,0,0,1-1.77-2.31L60.83,181a20.93,20.93,0,0,0-3.09-4.21,5.64,5.64,0,0,0-1.92-.82,1.84,1.84,0,0,1-1-.73,2,2,0,0,1-.39-1.22q0-2.06,3.14-2.88a28.19,28.19,0,0,1,6.91-.79q8.43,0,8.43,3.16a4,4,0,0,1-.82,1.79.9.9,0,0,0-.16.5,9.61,9.61,0,0,0,1.24,2.91q1.36,2.64,2.37,2.64c.39,0,.88-.44,1.48-1.34a4.16,4.16,0,0,0,.9-2.15,2,2,0,0,0-.4-1.32A10.76,10.76,0,0,0,75.65,175a1.83,1.83,0,0,1-.9-1.52c0-1.39,1.41-2.29,4.22-2.72a40.14,40.14,0,0,1,6-.39,17.19,17.19,0,0,1,5.75.68,2.3,2.3,0,0,1,1.77,2.19,1.93,1.93,0,0,1-.22,1,8.93,8.93,0,0,1-1.13,1.33,1.21,1.21,0,0,0-.29.83,9.35,9.35,0,0,0,1.22,3c.7,1.34,1.34,2,1.92,2s1.44-.87,2.41-2.59a7.55,7.55,0,0,0,1-2.58,3.17,3.17,0,0,0-.84-1.57A2.49,2.49,0,0,1,96,173a1.93,1.93,0,0,1,1.24-1.92,13.07,13.07,0,0,1,5.07-.77,19.9,19.9,0,0,1,4,.35,3.22,3.22,0,0,1,1.64.86,2.13,2.13,0,0,1,.63,1.51,1.78,1.78,0,0,1-.74,1.44,10.21,10.21,0,0,1-1.85.74,4.25,4.25,0,0,0-1.61,1.07,11.93,11.93,0,0,0-1.49,2.53l-6.6,12.89c-1.93,3.76-3.63,5.66-5.11,5.66a3.16,3.16,0,0,1-2.1-1.21,26.41,26.41,0,0,1-2.89-4" transform="translate(0 0)"/><path class="cls-4" d="M118.72,161.05a6.67,6.67,0,0,1,3.65.87,2.64,2.64,0,0,1,1.34,2.33,3.64,3.64,0,0,1-2,3.25,15.1,15.1,0,0,1-7.78,1.89,5.56,5.56,0,0,1-3.06-.74,3,3,0,0,1-1.54-2.67q0-2.29,3.25-3.6a16.39,16.39,0,0,1,6.17-1.33m5.23,11v15.48a8.15,8.15,0,0,0,.33,2.69,3.59,3.59,0,0,0,1.33,1.58,4.56,4.56,0,0,1,1.1,1,1.94,1.94,0,0,1,.27,1q0,3.43-8.63,3.44a28.46,28.46,0,0,1-7.36-.75,3,3,0,0,1-1.48-.93,2.25,2.25,0,0,1-.57-1.52,1.93,1.93,0,0,1,.28-1.12,9,9,0,0,1,1.48-1.28,3.39,3.39,0,0,0,1.16-2,18.53,18.53,0,0,0,.34-4.14c0-.58,0-1.68-.11-3.29s-.14-2.54-.17-2.81a2.25,2.25,0,0,0-1.48-1.68,2.3,2.3,0,0,1-1.64-2.13,2.71,2.71,0,0,1,2.14-2.51,48.31,48.31,0,0,1,6.34-1.94,25,25,0,0,1,5.22-.8c1,0,1.45.55,1.45,1.65" transform="translate(0 0)"/><path class="cls-4" d="M142.26,174.26a2.54,2.54,0,0,0-2.12,1,4.19,4.19,0,0,0-.8,2.69,10.31,10.31,0,0,0,.86,4.62,2.63,2.63,0,0,0,2.3,1.73,2.66,2.66,0,0,0,2.22-1.08,4.74,4.74,0,0,0,.81-2.9,9.27,9.27,0,0,0-.86-4.43,2.75,2.75,0,0,0-2.41-1.64m-5.75,24.25c-.44,0-.66.26-.66.77a2.86,2.86,0,0,0,1.69,2.54,8.68,8.68,0,0,0,4.38,1,9.7,9.7,0,0,0,4.05-.69,2.14,2.14,0,0,0,1.46-2,1.43,1.43,0,0,0-.55-1.13,2,2,0,0,0-1.37-.46,9.71,9.71,0,0,0-1.21.1,20.28,20.28,0,0,1-3.3.24,25.26,25.26,0,0,1-2.61-.05,12.88,12.88,0,0,1-1.5-.21,2.57,2.57,0,0,0-.4-.06m20.08-29.77a1.44,1.44,0,0,1,1.16.77,3.09,3.09,0,0,1,.5,1.77,5.63,5.63,0,0,1-.67,2.47,6.84,6.84,0,0,1-1.62,2.22c-.4.35-.61.64-.61.85a4.73,4.73,0,0,0,0,.64,5.55,5.55,0,0,1,.09,1,7.37,7.37,0,0,1-2.08,5.32,13,13,0,0,1-4.89,3,19.39,19.39,0,0,1-6.58,1.06,14.06,14.06,0,0,1-1.72-.11,9.43,9.43,0,0,0-1.06-.07,1.24,1.24,0,0,0-1.4,1.06,1,1,0,0,0,0,.34,1.58,1.58,0,0,0,.92,1.43,5,5,0,0,0,2.46.52,25,25,0,0,0,3.12-.29,50.46,50.46,0,0,1,6.38-.61,9.39,9.39,0,0,1,4.83,1,5.74,5.74,0,0,1,2.17,2.23,6.11,6.11,0,0,1,.81,3.1,8.43,8.43,0,0,1-2,5.21,13.54,13.54,0,0,1-6.83,4.43,26.94,26.94,0,0,1-8.18,1.12,21.43,21.43,0,0,1-9.51-1.81,7.39,7.39,0,0,1-2.69-2.24,4.86,4.86,0,0,1-1-2.88,3.54,3.54,0,0,1,.57-1.92,3.24,3.24,0,0,1,1.44-1.25c.53-.21.79-.45.79-.69s-.22-.48-.66-.86a4.93,4.93,0,0,1-2.11-3.7,4.46,4.46,0,0,1,1-2.64,7.14,7.14,0,0,1,2.52-2.11c.42-.2.62-.42.62-.63s-.26-.62-.79-1.12a7.84,7.84,0,0,1-2.71-5.92,6.61,6.61,0,0,1,1-3.4,8.48,8.48,0,0,1,2.68-2.78,16.7,16.7,0,0,1,9.42-2.8,22.22,22.22,0,0,1,4.59.54,21.7,21.7,0,0,0,3.3.48,9.1,9.1,0,0,0,5.72-2.3,2,2,0,0,1,1-.48" transform="translate(0 0)"/><path class="cls-4" d="M172.9,185.59a2.61,2.61,0,0,0-2,1,3.34,3.34,0,0,0-.85,2.29,3.24,3.24,0,0,0,.6,2.06,1.93,1.93,0,0,0,1.61.79c1.41,0,2.11-1.2,2.11-3.6a4.27,4.27,0,0,0-.3-2,1.27,1.27,0,0,0-1.15-.53m1.77-15.43a12.73,12.73,0,0,1,7.78,2.34,6.83,6.83,0,0,1,2.37,2.87,11.9,11.9,0,0,1,.67,4.43l0,4c0,2.76.19,4.54.57,5.36a1.88,1.88,0,0,0,.56.75,3.87,3.87,0,0,0,1.11.29c.56.09.84.46.84,1.12a4.55,4.55,0,0,1-1,2.66,8.33,8.33,0,0,1-2.62,2.32,8,8,0,0,1-4.14,1.17,5.46,5.46,0,0,1-4.39-1.91,1.42,1.42,0,0,0-1-.7,2.66,2.66,0,0,0-1.4.67,9.81,9.81,0,0,1-6,1.94,9.62,9.62,0,0,1-5.6-1.49,6.86,6.86,0,0,1-2.21-2.57,7.09,7.09,0,0,1-.82-3.32,6.61,6.61,0,0,1,2.22-4.9q3.45-3.36,10.34-3.39a3.76,3.76,0,0,0,1.93-.3c.26-.21.39-.68.39-1.43a10.52,10.52,0,0,0-.58-4.09,2,2,0,0,0-1.9-1.26,2.36,2.36,0,0,0-1.42.48A9.58,9.58,0,0,0,168.8,177q-2.34,3.38-4.9,3.38a3,3,0,0,1-2.11-.77,2.65,2.65,0,0,1-.82-2,4.09,4.09,0,0,1,1-2.56,9,9,0,0,1,2.75-2.24,20.94,20.94,0,0,1,10-2.55" transform="translate(0 0)"/></g><path class="cls-5" d="M67.18,214.49a3,3,0,1,1-3-3,3,3,0,0,1,3,3" transform="translate(0 0)"/><path class="cls-5" d="M146,215.71a3,3,0,1,1-3-3,3,3,0,0,1,3,3" transform="translate(0 0)"/><path class="cls-5" d="M78.63,212h1.48a1,1,0,0,1,.54.11.37.37,0,0,1,.13.37l-.09,1.42a1,1,0,0,1-.13.54.73.73,0,0,1-.48.11h-.76a.71.71,0,0,0-.68.33,2.93,2.93,0,0,0-.18,1.24,6.78,6.78,0,0,0,.28,2.1,1,1,0,0,0,.3.54,1.83,1.83,0,0,0,.68.31c.7.2,1,.59,1,1.15s-.41,1-1.23,1.28a15,15,0,0,1-4,.39c-2.77,0-4.16-.55-4.16-1.64a1,1,0,0,1,.17-.59,2.12,2.12,0,0,1,.77-.44,1.32,1.32,0,0,0,.76-1.06,13.87,13.87,0,0,0,.2-2.49,1.25,1.25,0,0,0-.2-.82,1,1,0,0,0-.76-.22,3.29,3.29,0,0,1-.83-.07.27.27,0,0,1-.17-.31l.1-1.5a.63.63,0,0,1,.12-.46,1.24,1.24,0,0,1,.57-.11.39.39,0,0,0,.44-.43,2.27,2.27,0,0,0-.32-.75,3.94,3.94,0,0,1-.55-2,3,3,0,0,1,1-2.36,6.15,6.15,0,0,1,4.24-1.34,5.71,5.71,0,0,1,3.62,1.06,2.38,2.38,0,0,1,1,1.88,1.81,1.81,0,0,1-.51,1.3,1.75,1.75,0,0,1-1.29.53,2.75,2.75,0,0,1-1.65-.59c-.32-.3-.62-.61-.91-.94a1.48,1.48,0,0,0-1-.55.82.82,0,0,0-.82.82h0c0,.63.6,1.29,1.8,2a4.36,4.36,0,0,1,.75.52,1.58,1.58,0,0,1,.35.53q.09.15.39.15" transform="translate(0 0)"/><path class="cls-5" d="M88.13,212.38a1,1,0,0,0-.83.39,1.57,1.57,0,0,0-.32,1,9.72,9.72,0,0,0,.27,2,16.74,16.74,0,0,0,.63,2.2,1.28,1.28,0,0,0,1.2,1c.7,0,1-.45,1-1.36a11,11,0,0,0-.27-2.29,9.53,9.53,0,0,0-.64-2.09,1.25,1.25,0,0,0-1.09-.84m1-2.77a6.41,6.41,0,0,1,3.79,1.14,6.14,6.14,0,0,1,2.61,5,5.45,5.45,0,0,1-2.35,4.43A8.17,8.17,0,0,1,88,221.93a6.43,6.43,0,0,1-4.58-1.63,5.36,5.36,0,0,1-1.7-4.13,5.87,5.87,0,0,1,2.08-4.64,7.77,7.77,0,0,1,5.29-1.89" transform="translate(0 0)"/><path class="cls-5" d="M102.86,212.38a1,1,0,0,0-.83.39,1.63,1.63,0,0,0-.31,1,10.44,10.44,0,0,0,.26,2,15.37,15.37,0,0,0,.64,2.2,1.26,1.26,0,0,0,1.19,1c.7,0,1-.45,1-1.36a11.73,11.73,0,0,0-.26-2.29,9,9,0,0,0-.65-2.09,1.25,1.25,0,0,0-1.09-.84m1-2.77a6.46,6.46,0,0,1,3.8,1.14,6.17,6.17,0,0,1,1.88,2.12,6,6,0,0,1,.73,2.86,5.45,5.45,0,0,1-2.35,4.43,8.22,8.22,0,0,1-5.15,1.74,6.4,6.4,0,0,1-4.57-1.63,5.37,5.37,0,0,1-1.71-4.13,5.82,5.82,0,0,1,2.09-4.64,7.74,7.74,0,0,1,5.28-1.89" transform="translate(0 0)"/><path class="cls-5" d="M118.6,212.3a1.34,1.34,0,0,0-1.21.82,5.94,5.94,0,0,0-.61,2.87,4.22,4.22,0,0,0,.58,2.43,1.3,1.3,0,0,0,1.12.6,1.19,1.19,0,0,0,1.12-.9,8.56,8.56,0,0,0,.35-2.89,4.73,4.73,0,0,0-.42-2.43,1.06,1.06,0,0,0-.93-.5m6.4-6v10.83a5.26,5.26,0,0,0,.08,1.19,1,1,0,0,0,.43.51,2.36,2.36,0,0,1,.57.52,1.06,1.06,0,0,1,.15.55c0,.63-.64,1.12-1.9,1.45a13.65,13.65,0,0,1-3.42.44.77.77,0,0,1-.49-.11,1,1,0,0,1-.14-.55c0-.4-.18-.6-.43-.6a1.29,1.29,0,0,0-.63.36,4,4,0,0,1-2.67,1,4.68,4.68,0,0,1-3.29-1.36,6.65,6.65,0,0,1-1.39-1.89,6.13,6.13,0,0,1-.71-2.81,6.24,6.24,0,0,1,.92-3.23,5.78,5.78,0,0,1,2.31-2.21,5.11,5.11,0,0,1,2.42-.64,4.88,4.88,0,0,1,2.45.62.71.71,0,0,0,.28.09c.26,0,.38-.34.38-1a1,1,0,0,0-.21-.67,1.69,1.69,0,0,0-.73-.4c-.5-.16-.75-.43-.75-.83,0-.58.57-1,1.72-1.35a19.52,19.52,0,0,1,4-.85.88.88,0,0,1,1,.74,1.13,1.13,0,0,1,0,.26" transform="translate(0 0)"/><path class="cls-5" d="M131.87,209.62a11.57,11.57,0,0,1,1.95.26,2.3,2.3,0,0,0,.45.05,2.73,2.73,0,0,0,.79-.22,1.28,1.28,0,0,1,.47-.1,1.51,1.51,0,0,1,1.11.71,5.29,5.29,0,0,1,.74,1.23,3.15,3.15,0,0,1,.29,1.17,1,1,0,0,1-.34.8,1.15,1.15,0,0,1-.83.31,1.34,1.34,0,0,1-.75-.2,8.27,8.27,0,0,1-1.06-.9,2.08,2.08,0,0,0-1.27-.74.78.78,0,0,0-.58.24.79.79,0,0,0-.25.58c0,.4.38.76,1.13,1.11a10.5,10.5,0,0,1,3.1,2,3,3,0,0,1,.91,2.23,3.42,3.42,0,0,1-1.46,2.79,4.88,4.88,0,0,1-3.08,1,16,16,0,0,1-1.7-.15c-.77-.09-1.2-.14-1.3-.14a2.16,2.16,0,0,0-.36,0l-.5,0a1.31,1.31,0,0,1-.89-.29,5.09,5.09,0,0,1-1.32-3c0-.74.28-1.1.85-1.1a.92.92,0,0,1,.62.22,13.14,13.14,0,0,1,1.18,1.18,4.38,4.38,0,0,0,.82.73,1.32,1.32,0,0,0,.69.2.91.91,0,0,0,.63-.21.71.71,0,0,0,.24-.56c0-.36-.3-.69-.92-1a8.58,8.58,0,0,1-2.78-2,3.5,3.5,0,0,1-.86-2.33,3.67,3.67,0,0,1,.88-2.47,4.22,4.22,0,0,1,3.4-1.47" transform="translate(0 0)"/><path class="cls-5" d="M29,159.65H42.92A16.57,16.57,0,0,0,47,159a5.93,5.93,0,0,1,1.39-.22c1.43,0,2.81,1.07,4.16,3.2a12.17,12.17,0,0,1,2,6.59,4,4,0,0,1-1.4,3.38,4.1,4.1,0,0,1-2.53.8,3.87,3.87,0,0,1-2.43-.79,8.3,8.3,0,0,1-2-2.59,9.79,9.79,0,0,0-1.38-2.16,1.62,1.62,0,0,0-1.21-.51,1.47,1.47,0,0,0-1.4.82,6.52,6.52,0,0,0-.42,2.73v14.92a8.58,8.58,0,0,0,.48,3.33,3.23,3.23,0,0,0,1.79,1.6A5.8,5.8,0,0,1,46,191.3a2.1,2.1,0,0,1,.51,1.5c0,1.28-.85,2.23-2.57,2.85a24.8,24.8,0,0,1-7.9.93q-6.55,0-9.71-1.09c-1.78-.6-2.67-1.58-2.67-2.92a1.94,1.94,0,0,1,1-1.71,17.16,17.16,0,0,1,1.87-.64,2.09,2.09,0,0,0,1.39-1.12,11.21,11.21,0,0,0,.62-3.18q.21-2.07.4-6.72t.18-8.06a10.89,10.89,0,0,0-.37-3.41,1.29,1.29,0,0,0-1.21-1c-.69,0-1.35.49-2,1.49a15.65,15.65,0,0,1-2.9,3.59,4.38,4.38,0,0,1-2.61,1,2.89,2.89,0,0,1-2.35-1.08,4,4,0,0,1-.93-2.75,10.34,10.34,0,0,1,.75-3.64,14.63,14.63,0,0,1,2-3.66c1.33-1.82,2.67-2.73,4-2.73a5.59,5.59,0,0,1,1.22.16c.94.2,1.72.33,2.33.41a18.45,18.45,0,0,0,2.1.1" transform="translate(0 0)"/><path class="cls-5" d="M86.19,191.41,83.47,187a16.7,16.7,0,0,0-1.23-1.79,1,1,0,0,0-.72-.29c-.63,0-1.29.58-2,1.76l-4.41,7.67c-.84,1.47-1.79,2.21-2.85,2.21a2.74,2.74,0,0,1-1.79-.67,8.83,8.83,0,0,1-1.77-2.31l-7.92-13.29a21,21,0,0,0-3.09-4.22,5.64,5.64,0,0,0-1.92-.82,1.84,1.84,0,0,1-1-.73,2,2,0,0,1-.39-1.22c0-1.36,1-2.33,3.14-2.88a28.19,28.19,0,0,1,6.91-.79c5.62,0,8.43,1,8.43,3.17a3.93,3.93,0,0,1-.82,1.78.93.93,0,0,0-.16.51,9.56,9.56,0,0,0,1.24,2.9q1.36,2.64,2.37,2.64c.39,0,.88-.44,1.48-1.33a4.2,4.2,0,0,0,.9-2.16,2,2,0,0,0-.4-1.32,11.64,11.64,0,0,0-1.87-1.56,1.83,1.83,0,0,1-.9-1.52q0-2.07,4.22-2.72a40.14,40.14,0,0,1,6-.39,17.19,17.19,0,0,1,5.75.68,2.3,2.3,0,0,1,1.77,2.19,1.93,1.93,0,0,1-.22,1,8.93,8.93,0,0,1-1.13,1.33,1.21,1.21,0,0,0-.29.83,9.35,9.35,0,0,0,1.22,3c.7,1.34,1.34,2,1.92,2s1.44-.86,2.41-2.59a7.55,7.55,0,0,0,1-2.58,3.17,3.17,0,0,0-.84-1.57,2.49,2.49,0,0,1-.61-1.63,1.93,1.93,0,0,1,1.24-1.92,13.07,13.07,0,0,1,5.07-.77,19.9,19.9,0,0,1,4,.35,3.22,3.22,0,0,1,1.64.86,2.13,2.13,0,0,1,.63,1.51,1.78,1.78,0,0,1-.74,1.44,10.24,10.24,0,0,1-1.85.75,4,4,0,0,0-1.61,1.06,11.91,11.91,0,0,0-1.53,2.48L96.25,191c-1.93,3.77-3.63,5.65-5.11,5.66a3.16,3.16,0,0,1-2.1-1.21,25.69,25.69,0,0,1-2.89-4" transform="translate(0 0)"/><path class="cls-5" d="M142.26,173.56a2.56,2.56,0,0,0-2.12,1,4.19,4.19,0,0,0-.8,2.69,10.29,10.29,0,0,0,.86,4.61,2.63,2.63,0,0,0,2.3,1.73,2.66,2.66,0,0,0,2.22-1.08,4.71,4.71,0,0,0,.81-2.89,9.31,9.31,0,0,0-.86-4.44,2.75,2.75,0,0,0-2.41-1.64m-5.75,24.28c-.44,0-.66.26-.66.77a2.84,2.84,0,0,0,1.69,2.54,8.68,8.68,0,0,0,4.38,1,9.7,9.7,0,0,0,4.05-.69,2.13,2.13,0,0,0,1.46-1.95,1.43,1.43,0,0,0-.55-1.13,2,2,0,0,0-1.37-.46,9.71,9.71,0,0,0-1.21.1,21.47,21.47,0,0,1-3.3.25,24.82,24.82,0,0,1-2.59-.14,12.88,12.88,0,0,1-1.5-.21,2.57,2.57,0,0,0-.4-.06m20.08-29.77a1.44,1.44,0,0,1,1.16.77,3.09,3.09,0,0,1,.5,1.77,5.63,5.63,0,0,1-.67,2.47A6.84,6.84,0,0,1,156,175.3c-.4.35-.61.64-.61.85a4.73,4.73,0,0,0,.05.64,5.55,5.55,0,0,1,.09,1,7.32,7.32,0,0,1-2.12,5.33,12.75,12.75,0,0,1-4.89,3,19.39,19.39,0,0,1-6.58,1.06,14.06,14.06,0,0,1-1.72-.11,9.43,9.43,0,0,0-1.06-.07,1.24,1.24,0,0,0-1.4,1.06,1,1,0,0,0,0,.34,1.58,1.58,0,0,0,.92,1.43,5,5,0,0,0,2.46.52,25,25,0,0,0,3.12-.29,50.46,50.46,0,0,1,6.38-.61,9.39,9.39,0,0,1,4.83,1,5.7,5.7,0,0,1,2.17,2.24,6.1,6.1,0,0,1,.79,3.13,8.45,8.45,0,0,1-1.95,5.22,13.57,13.57,0,0,1-6.83,4.42,26.94,26.94,0,0,1-8.18,1.12,21.43,21.43,0,0,1-9.51-1.81,7.39,7.39,0,0,1-2.69-2.24,4.86,4.86,0,0,1-1-2.88,3.54,3.54,0,0,1,.57-1.92,3.24,3.24,0,0,1,1.44-1.25c.53-.21.79-.44.79-.69s-.22-.48-.66-.85a5,5,0,0,1-2.11-3.71,4.46,4.46,0,0,1,1-2.64,6.93,6.93,0,0,1,2.52-2.1c.42-.21.62-.43.62-.64s-.26-.62-.79-1.12a7.84,7.84,0,0,1-2.71-5.92,6.61,6.61,0,0,1,1-3.4,8.48,8.48,0,0,1,2.68-2.78,16.7,16.7,0,0,1,9.42-2.8,22.22,22.22,0,0,1,4.59.54,21.7,21.7,0,0,0,3.3.48,9.1,9.1,0,0,0,5.72-2.3,2,2,0,0,1,1-.48" transform="translate(0 0)"/><path class="cls-5" d="M118.72,160.35a6.67,6.67,0,0,1,3.65.87,2.64,2.64,0,0,1,1.34,2.33,3.64,3.64,0,0,1-2,3.25,15.1,15.1,0,0,1-7.78,1.89,5.56,5.56,0,0,1-3.06-.74,3,3,0,0,1-1.54-2.67q0-2.29,3.25-3.6a16.78,16.78,0,0,1,6.17-1.33m5.23,11v15.47a8.21,8.21,0,0,0,.33,2.7,3.56,3.56,0,0,0,1.33,1.57,4.56,4.56,0,0,1,1.1,1,1.94,1.94,0,0,1,.27,1q0,3.44-8.63,3.44a28.46,28.46,0,0,1-7.36-.75,3,3,0,0,1-1.48-.93,2.25,2.25,0,0,1-.57-1.52,1.81,1.81,0,0,1,.28-1.11,8.62,8.62,0,0,1,1.48-1.28,3.39,3.39,0,0,0,1.16-2,18.53,18.53,0,0,0,.34-4.14c0-.58,0-1.68-.11-3.29s-.14-2.54-.17-2.8a2.23,2.23,0,0,0-1.48-1.69,2.31,2.31,0,0,1-1.64-2.12c0-1.13.72-2,2.14-2.51a46.65,46.65,0,0,1,6.34-2,25,25,0,0,1,5.22-.8c1,0,1.45.56,1.45,1.65" transform="translate(0 0)"/><path class="cls-5" d="M172.9,184.89a2.66,2.66,0,0,0-2,1,3.34,3.34,0,0,0-.85,2.29,3.24,3.24,0,0,0,.6,2.06,1.93,1.93,0,0,0,1.61.79c1.41,0,2.11-1.2,2.11-3.6a4.27,4.27,0,0,0-.3-2,1.27,1.27,0,0,0-1.15-.53m1.77-15.43a12.73,12.73,0,0,1,7.78,2.34,6.89,6.89,0,0,1,2.37,2.87,11.9,11.9,0,0,1,.67,4.43l0,4c0,2.76.19,4.54.57,5.36a1.88,1.88,0,0,0,.56.75,3.31,3.31,0,0,0,1.11.29c.56.09.84.46.84,1.12a4.55,4.55,0,0,1-1,2.66,8.33,8.33,0,0,1-2.62,2.32,8,8,0,0,1-4.14,1.17,5.45,5.45,0,0,1-4.39-2,1.42,1.42,0,0,0-1-.7,2.66,2.66,0,0,0-1.4.67,9.81,9.81,0,0,1-6,1.94,9.62,9.62,0,0,1-5.6-1.49,6.86,6.86,0,0,1-2.21-2.57,7.09,7.09,0,0,1-.82-3.32,6.62,6.62,0,0,1,2.22-4.9q3.45-3.36,10.34-3.39a3.76,3.76,0,0,0,1.93-.3c.26-.21.39-.68.39-1.43a10.47,10.47,0,0,0-.58-4.08,2,2,0,0,0-1.9-1.27,2.36,2.36,0,0,0-1.42.48,9.58,9.58,0,0,0-1.54,1.76q-2.34,3.38-4.9,3.38a2.92,2.92,0,0,1-2.11-.77,2.65,2.65,0,0,1-.82-2,4.09,4.09,0,0,1,1-2.56,9,9,0,0,1,2.75-2.24,20.94,20.94,0,0,1,10-2.55" transform="translate(0 0)"/><path class="cls-2" d="M137.39,25.13c-2.42.47-4.78,1.38-7.21,1.61-3.6.34-6.09,4.23-10.19,3-.45-.13-4.7-.5-2.48,2.82,3.34.76,4.52,2.15,2.72,4.8-.17.23,0,.67-.09,1-1.69,7.06-2.48,14.53-5.34,21.08s-7.72,12-11.78,17.92a6.19,6.19,0,0,1-2.31,2c-4.56,2.21-9,4.67-13.8,6.3a12.13,12.13,0,0,0-6.18,4l-.28.15a10.34,10.34,0,0,0-5.8,7.48c-.32,1.55-.8,3.07-1.19,4.61-.28,1.09-.57,2.19-.8,3.3a5.9,5.9,0,0,1-1.82,3.24A13,13,0,0,0,69,111.7c-1,2-2,3.92-3.06,5.88a2.52,2.52,0,0,0-.39,1.06c.71-.18.71-.18,1.21-.89-.75,1.53-.23.55-1.72,3.44a1,1,0,0,0,.64-.19c2.41-1.5,2.82-1.24,3.21-4.28A8.37,8.37,0,0,1,72,111.07a3.19,3.19,0,0,0,1.11-2.91,8.17,8.17,0,0,1,.3-2.87,50.35,50.35,0,0,1,2.11-5.85,19.46,19.46,0,0,1,2.1-3l.14.21c-.34,1-.65,2-.93,3-.49,1.83-.69,3.8-1.27,5.56v4c.57,4.6.48,9-2,13.2A14.79,14.79,0,0,0,72,126.8c-1.4,6.45-2.69,12.91-4.06,19.36-.55,2.58-1.34,5.77-1.85,8.36-.07.38,1.21.69,1.91.76a31.27,31.27,0,0,0,3.49.07c-1.61-9.32,2.55-17.15,5-25.34,2.56-8.53,4-10.41,10-17.93,0,0,.65-.3.57.48,0,.32-.12.21-.72,1a6.06,6.06,0,0,0-.85,1.28l-1,1.59c-1.05,2-1.05,1.82-1.94,3.46s-1.18,1.59-1,3.23c.24,2.94.65,3.26,1,5.42,1.07,6.5,2.53,13,4.15,19.11.57,2.1.5,2.86,1,5.43a22.48,22.48,0,0,0,5.35-.68c-7.5-14.1-5.77-28.09-.12-41.48a57.25,57.25,0,0,0,9.16.43c1.57-.09,3.23-.87,4.81-1,2-.17,2.83.6,3.2,2.85,1.18,7.49.31,15.1,1.9,22.62,1.39,6.52-1.69,14,3.85,20,.65,0,1.9-.12,3.13-.25a8.73,8.73,0,0,0,1.34-.23c-1.31-2.61-3.46-5-3.66-7.61-1.16-15.38-1.49-30.74,3.6-45.67,1.22-3.58,1.92-7.25.36-11a5.52,5.52,0,0,1,.23-3.65C125.79,74,127.33,60,127.67,46c.15-6.41,4.46-10.06,7.22-14.78.26-.45,1-.58,1.36-1,1.2-1.21,2.36-2.46,3.89-4.07C140.26,24.09,138,25,137.39,25.13Z" transform="translate(0 0)"/><path class="cls-2" d="M111.54,146.25q0-.65,0-1.29v-2.28h0c-1.39,1.34-3.72,3.37-5.11,4.71.44,1.61.94,3.43,1.55,5.68.29-.39.57-.77.83-1.15.68-1,1.79-2.27,2.43-3.34a2.52,2.52,0,0,0,.38-.91c0-.37-.05-.74-.07-1.12C111.54,146.45,111.54,146.35,111.54,146.25Z" transform="translate(0 0)"/><path class="cls-2" d="M118.64,112.71q-.3,1.62-.54,3.24c-.17,1.34-.36,2.85-.51,4.12-.1,1-.19,2-.26,3a23.22,23.22,0,0,1,2.54,5.55,21.43,21.43,0,0,1-2.78,6.55c0,1.75.11,3.48.2,5.19.92-1.72,6.19-11.64,6.83-13.39.7-1.93.7-3.3.27-4S119.59,114.42,118.64,112.71Z" transform="translate(0 0)"/></g></svg>